<svg xmlns="http://www.w3.org/2000/svg" viewBox="0 0 474 243"><title>angar-v3</title><path d="M404.58,184.92A237,237,0,0,0,0,352.5a6,6,0,0,0,6,6H468a6,6,0,0,0,6-6A235.42,235.42,0,0,0,404.58,184.92ZM294.5,346.5H243v-108h51.5Zm-63.5,0H179.5v-108H231Zm75.5,0v-114a6,6,0,0,0-6-6h-127a6,6,0,0,0-6,6v114H12.08a225,225,0,0,1,384-153.1,223.42,223.42,0,0,1,65.82,153.1Z" transform="translate(0 -115.5)" style="fill:#fff"/><path d="M300.5,183.5h-127a6,6,0,0,0-6,6v23a6,6,0,0,0,6,6h127a6,6,0,0,0,6-6v-23A6,6,0,0,0,300.5,183.5Zm-6,23h-115v-11h115Z" transform="translate(0 -115.5)" style="fill:#fff"/><path d="M117.38,278.5h-43a6,6,0,0,0-6,6v31a6,6,0,0,0,6,6h43a6,6,0,0,0,6-6v-31A6,6,0,0,0,117.38,278.5Zm-37,12h9.5v19h-9.5Zm31,19h-9.5v-19h9.5Z" transform="translate(0 -115.5)" style="fill:#fff"/><path d="M350.63,284.5v31a6,6,0,0,0,6,6h43a6,6,0,0,0,6-6v-31a6,6,0,0,0-6-6h-43A6,6,0,0,0,350.63,284.5Zm43,25h-9.5v-19h9.5Zm-31-19h9.5v19h-9.5Z" transform="translate(0 -115.5)" style="fill:#fff"/></svg>