<svg xmlns="http://www.w3.org/2000/svg" viewBox="0 0 32 32"><title>angar-v2</title><path d="M11.57,15.71H8.21a1,1,0,0,0,0,2h4.11a0,0,0,0,0,0,0V16.47A.76.76,0,0,0,11.57,15.71Zm.56,1.8H8.21a.8.8,0,0,1,0-1.6h3.36a.56.56,0,0,1,.56.56Z" style="fill:#fff"/><path d="M23.79,15.71h-3.2a.93.93,0,0,0-.92.93v1.07h4.12a1,1,0,0,0,0-2Zm0,1.8H19.87v-.87a.73.73,0,0,1,.72-.73h3.2a.8.8,0,0,1,0,1.6Z" style="fill:#fff"/><path d="M29.74,22.61a13.74,13.74,0,0,0-27.48,0H2v.2H30v-.2Zm-13.84,0H13.64V16.51a.73.73,0,0,1,.72-.73H15.9Zm2.46,0H16.1V15.78h1.54a.73.73,0,0,1,.72.73Zm.2,0v-6.1a.93.93,0,0,0-.92-.93H14.36a.93.93,0,0,0-.92.93v6.1H3.83a12.17,12.17,0,0,1,24.34,0Zm9.81,0a12.37,12.37,0,0,0-24.74,0H2.76a13.24,13.24,0,0,1,26.48,0Z" style="fill:#fff"/><path d="M12.18,12.35l.32.8.11,0c-.1-.29-.16-.43-.26-.71l.38-.13L13,13l.11,0-.26-.82Z" style="fill:#fff"/><path d="M13.35,12.19a.26.26,0,0,0-.14.11l0-.05-.12,0,.25.83.11,0-.07-.27.06,0h.09a.32.32,0,0,0,.2-.15.37.37,0,0,0-.11-.46A.35.35,0,0,0,13.35,12.19Zm.1.56h-.07l-.05,0-.1-.35,0-.05.06,0a.27.27,0,0,1,.18,0,.24.24,0,0,1,.1.16A.21.21,0,0,1,13.45,12.75Z" style="fill:#fff"/><path d="M14.06,12a.29.29,0,0,0-.2.13.32.32,0,0,0,0,.25.37.37,0,0,0,.13.22.32.32,0,0,0,.24,0,.31.31,0,0,0,.19-.12.35.35,0,0,0,0-.25.39.39,0,0,0-.12-.23A.34.34,0,0,0,14.06,12Zm.22.46a.14.14,0,0,1-.11.09c-.12,0-.19,0-.23-.2a.25.25,0,0,1,0-.17.14.14,0,0,1,.12-.09c.12,0,.19,0,.22.2A.24.24,0,0,1,14.28,12.49Z" style="fill:#fff"/><path d="M15.13,11.88c-.09.2-.13.3-.2.49-.12-.17-.18-.26-.31-.43h0c0,.26,0,.39,0,.65h.11c0-.15,0-.23,0-.38.1.14.15.21.24.36h0l.17-.4.1.37h.12c-.07-.25-.1-.38-.18-.63Z" style="fill:#fff"/><path d="M16.05,11.63c-.1.25-.14.37-.22.62-.09-.24-.14-.37-.24-.61h-.06c-.06.34-.08.52-.13.86h.11c0-.23.05-.34.09-.56l.22.56h0c.07-.23.11-.34.2-.57l.1.56h.12c-.06-.34-.09-.52-.17-.86Z" style="fill:#fff"/><path d="M16.69,11.87a.27.27,0,0,0-.23.08.34.34,0,0,0-.11.24.31.31,0,0,0,.08.23.32.32,0,0,0,.21.1h.14l.11,0,0-.09a.34.34,0,0,1-.18,0,.21.21,0,0,1-.11,0,.19.19,0,0,1-.07-.08.2.2,0,0,1,0-.11l.48,0,0-.06a.25.25,0,0,0-.06-.21A.4.4,0,0,0,16.69,11.87Zm-.21.24a.19.19,0,0,1,.07-.11.23.23,0,0,1,.14,0,.23.23,0,0,1,.13.06.16.16,0,0,1,0,.12Z" style="fill:#fff"/><path d="M17.08,12l.2,0-.07.53h.11l.08-.53.2,0V12l-.52-.07Z" style="fill:#fff"/><path d="M18.15,12.14A.29.29,0,0,0,18,12h-.13l-.1,0,0,.1a.22.22,0,0,1,.18,0,.14.14,0,0,1,.12.18l-.08,0a.37.37,0,0,0-.24,0,.19.19,0,0,0-.12.14.17.17,0,0,0,0,.14.22.22,0,0,0,.13.08.26.26,0,0,0,.22,0,.16.16,0,0,0,0,.07.3.3,0,0,0,.1.05v-.06s0-.06,0-.12l.05-.22A.24.24,0,0,0,18.15,12.14Zm-.14.41a.22.22,0,0,1-.17,0c-.08,0-.11-.05-.1-.12a.11.11,0,0,1,.07-.09.29.29,0,0,1,.16,0l.07,0Z" style="fill:#fff"/><path d="M18.56,12.19v.06a1.23,1.23,0,0,1-.13.29c-.05.1-.12.14-.19.12l0,.1h.12a.23.23,0,0,0,.11-.07.74.74,0,0,0,.12-.16.92.92,0,0,0,.09-.23l.18,0-.15.52.11,0,.19-.6Z" style="fill:#fff"/><path d="M19.29,12.42l0,.05a1.22,1.22,0,0,1-.14.28c-.07.09-.14.13-.21.1l0,.1A.3.3,0,0,0,19,13a.17.17,0,0,0,.12-.06.64.64,0,0,0,.13-.15,1.51,1.51,0,0,0,.11-.22l.18.06-.19.51.11,0,.23-.58A2.86,2.86,0,0,0,19.29,12.42Z" style="fill:#fff"/></svg>