<svg xmlns="http://www.w3.org/2000/svg" viewBox="0 0 964 497"><title>angar</title><path d="M947.37,532.38A482,482,0,0,0,21.25,720a15,15,0,0,0,30,0c0-249.23,202.77-452,452-452s452,202.77,452,452a15,15,0,0,0,30,0A479.13,479.13,0,0,0,947.37,532.38Z" transform="translate(-21.25 -238)" style="fill:#fff"/><path d="M651.46,451.5H351.79a12.5,12.5,0,0,0-12.5,12.5V707a12.5,12.5,0,0,0,12.5,12.5H651.46A12.5,12.5,0,0,0,664,707V464A12.5,12.5,0,0,0,651.46,451.5Zm-162.33,243H364.29v-218H489.13Zm25-218H639v218H514.13Z" transform="translate(-21.25 -238)" style="fill:#fff"/></svg>