<svg xmlns="http://www.w3.org/2000/svg" viewBox="0 0 28 14.38"><title>angar-v2</title><path d="M11.57,15.71H8.21a1,1,0,0,0,0,2h4.11a0,0,0,0,0,0,0V16.47A.76.76,0,0,0,11.57,15.71Zm0,1.25H8.21A.25.25,0,0,1,8,16.71a.25.25,0,0,1,.25-.25h3.37Z" transform="translate(-2 -8.71)" style="fill:#fff"/><path d="M24.79,16.71a1,1,0,0,0-1-1h-3.2a.93.93,0,0,0-.92.93v1.07h4.12A1,1,0,0,0,24.79,16.71Zm-4.37-.07a.18.18,0,0,1,.17-.18h3.2a.25.25,0,0,1,.25.25.25.25,0,0,1-.25.25H20.42Z" transform="translate(-2 -8.71)" style="fill:#fff"/><path d="M30,22.34a14,14,0,0,0-28,0H2v.75H30v-.75ZM16,9.71A13,13,0,0,1,29,22.34h-.35a12.64,12.64,0,0,0-25.26,0H3A13,13,0,0,1,16,9.71ZM15.63,22H14.19V16.51a.18.18,0,0,1,.17-.18h1.27Zm.75-5.71h1.26a.18.18,0,0,1,.17.18V22H16.38Zm1.26-.75H14.36a.93.93,0,0,0-.92.93v5.83H4.12a11.89,11.89,0,0,1,23.76,0H18.56V16.51A.93.93,0,0,0,17.64,15.58Z" transform="translate(-2 -8.71)" style="fill:#fff"/></svg>