<svg xmlns="http://www.w3.org/2000/svg" viewBox="0 0 369.18 278.77"><title>basket</title><path d="M429.85,275.45a15,15,0,0,0-10.68-4.09H273.51V171.53c0-10.79-11.47-19.53-25.63-19.53s-25.61,8.74-25.61,19.53v99.83H76.6a15,15,0,0,0-10.68,4.09,8.25,8.25,0,0,0-2.05,9l55,139.13c1.7,4.28,6.87,7.21,12.75,7.21H364.12c5.87,0,11.05-2.93,12.75-7.21l55-139.13A8.25,8.25,0,0,0,429.85,275.45ZM305.7,411.54H190.08c-7,0-12.61-4.3-12.61-9.61s5.64-9.61,12.61-9.61H305.7c7,0,12.62,4.3,12.62,9.61S312.67,411.54,305.7,411.54Zm25.23-48.06H164.85c-7,0-12.61-4.3-12.61-9.61s5.64-9.61,12.61-9.61H330.93c7,0,12.61,4.3,12.61,9.61S337.9,363.48,330.93,363.48Zm25.22-48.06H139.63c-7,0-12.61-4.31-12.61-9.62s5.64-9.61,12.61-9.61H356.15c7,0,12.61,4.31,12.61,9.61S363.12,315.42,356.15,315.42Z" transform="translate(-63.3 -152)" style="fill:#fff"/></svg>