<svg xmlns="http://www.w3.org/2000/svg" viewBox="0 0 232.25 126.87"><title>building</title><path d="M116.13,52.69C52.09,52.69,0,106.24,0,172.06a7.5,7.5,0,0,0,7.5,7.5H224.75a7.5,7.5,0,0,0,7.5-7.5C232.25,106.24,180.16,52.69,116.13,52.69ZM90.68,138.58a7.5,7.5,0,0,1-7.5,7.5H61.51a7.5,7.5,0,0,1-7.5-7.5v-5.11a7.5,7.5,0,0,1,7.5-7.5H83.18a7.5,7.5,0,0,1,7.5,7.5Zm34.4-20v46H107.17v-46Zm53.16,20a7.5,7.5,0,0,1-7.5,7.5H149.07a7.5,7.5,0,0,1-7.5-7.5v-5.11a7.5,7.5,0,0,1,7.5-7.5h21.67a7.5,7.5,0,0,1,7.5,7.5Zm29.31,26a91.61,91.61,0,0,0-182.85,0H15.26C19,110.5,62.81,67.69,116.13,67.69S213.25,110.5,217,164.56Z" transform="translate(0 -52.69)" style="fill:#fff"/></svg>