<svg xmlns="http://www.w3.org/2000/svg" viewBox="0 0 463.75 450.45"><title>fundament</title><path d="M63.5,216h-8a7.5,7.5,0,0,0,0,15h8a7.5,7.5,0,0,0,0-15Z" transform="translate(0.38 0.38)" style="fill:#fff"/><path d="M95.5,216h-8a7.5,7.5,0,0,0,0,15h8a7.5,7.5,0,0,0,0-15Z" transform="translate(0.38 0.38)" style="fill:#fff"/><path d="M127.5,216h-8a7.5,7.5,0,0,0,0,15h8a7.5,7.5,0,0,0,0-15Z" transform="translate(0.38 0.38)" style="fill:#fff"/><path d="M207,335.5A23.52,23.52,0,0,0,183.5,312H167V295h48.5a7.5,7.5,0,0,0,7.5-7.5v-32a7.5,7.5,0,0,0-7.5-7.5H191.27l51.58-25.79a7.36,7.36,0,0,0,2-1.41L408,57.61V212.87l-30.36,37.95A7.51,7.51,0,0,0,376,255.5v4c0,4.14,3.36,4.5,7.5,4.5h64c4.14,0,7.5-.36,7.5-4.5v-4a7.51,7.51,0,0,0-1.64-4.68L423,212.87V47h16.5a23.5,23.5,0,0,0,0-47H407.32l-.49,0-.27,0-.45.06-.32.08L405.4.3,405,.43a2.5,2.5,0,0,0-.25.09L137.14,105.29a22.24,22.24,0,0,0-12.45,11.06L90.86,184H23.5a7.5,7.5,0,0,0-7.5,7.5V248H7.5A7.5,7.5,0,0,0,0,255.5v32A7.5,7.5,0,0,0,7.5,295H56v17H39.5A23.52,23.52,0,0,0,16,335.5m151-144V126.33a22.2,22.2,0,0,0-5.38-14.51L376.83,27.56,167,237.39Zm-28.89-68.45A7.33,7.33,0,0,1,152,126.33V184H107.63ZM31,199H152v49H31Zm40,96H88v17H71Zm49,0v17H103V295Zm32,17H135V295h17Zm56-32H15V263H208Zm27.06-70.66-37.58,18.78L410.61,15H439.5a8.5,8.5,0,0,1,0,17h-24a7.47,7.47,0,0,0-5.3,2.2ZM415.5,227.51,431.89,248H399.1Z" transform="translate(0.38 0.38)" style="fill:#fff;stroke:#000;stroke-miterlimit:10;stroke-width:0.75px"/><rect x="0.38" y="340.04" width="287" height="14" style="fill:#fff"/><rect x="322.71" y="340.04" width="76.77" height="14" style="fill:#fff"/><rect x="434.81" y="340.04" width="28.56" height="14" style="fill:#fff"/><polygon points="312.71 398.93 312.71 429.64 306.04 436.3 297.38 427.64 297.38 407.4 287.38 412.92 287.38 431.78 306.04 450.45 322.71 433.78 322.71 393.41 312.71 398.93" style="fill:#fff"/><polygon points="297.38 384.55 297.38 354.04 297.38 340.04 297.38 332.04 312.71 332.04 312.71 340.04 312.71 354.04 312.71 376.09 322.71 370.57 322.71 354.04 322.71 340.04 322.71 322.04 287.38 322.04 287.38 340.04 287.38 354.04 287.38 390.07 297.38 384.55" style="fill:#fff"/><polygon points="424.81 388.76 424.81 409.64 418.15 416.3 409.48 407.64 409.48 397.22 399.48 402.74 399.48 411.78 418.15 430.45 434.81 413.78 434.81 383.24 424.81 388.76" style="fill:#fff"/><polygon points="409.48 374.38 409.48 354.04 409.48 340.04 409.48 292.04 424.81 292.04 424.81 340.04 424.81 354.04 424.81 365.92 434.81 360.39 434.81 354.04 434.81 340.04 434.81 282.04 399.48 282.04 399.48 340.04 399.48 354.04 399.48 379.9 409.48 374.38" style="fill:#fff"/></svg>