<svg xmlns="http://www.w3.org/2000/svg" viewBox="0 0 477.06 433.09"><title>gear</title><path d="M167.15,285.64a90.55,90.55,0,1,1,92.28-118.48c.71,0,1.38-.2,2.1-.2a43.16,43.16,0,0,1,15.64,2.9,43.45,43.45,0,0,1,23.29-22.48,134.9,134.9,0,0,0-6.95-15.62l20.69-20.69a14.23,14.23,0,0,0,0-20.11L277.76,54.53a14.23,14.23,0,0,0-20.11,0L237,75.23a135.08,135.08,0,0,0-23.61-9.83V36.2A14.22,14.22,0,0,0,199.14,22H147.62A14.22,14.22,0,0,0,133.41,36.2V65.4a136.24,136.24,0,0,0-23.62,9.82L89.12,54.55a14.23,14.23,0,0,0-20.11,0L32.57,91a14.23,14.23,0,0,0,0,20.11l20.68,20.68a135.26,135.26,0,0,0-9.82,23.6H14.22A14.22,14.22,0,0,0,0,169.58v51.53a14.22,14.22,0,0,0,14.22,14.22h29.2a135.68,135.68,0,0,0,9.82,23.61L32.56,279.62a14.21,14.21,0,0,0,0,20.11L69,336.17a14.23,14.23,0,0,0,20.11,0l20.68-20.68a136,136,0,0,0,23.62,9.84v29.2a14.22,14.22,0,0,0,14.22,14.22h33.3a43.16,43.16,0,0,1-14.85-32.54C166.07,327.93,165.42,293.64,167.15,285.64Z" transform="translate(0 -21.98)" style="fill:#fff"/><path d="M231,179.6A44.35,44.35,0,0,1,236.6,175c-8.67-26.78-33.58-46.34-63.22-46.34a66.82,66.82,0,0,0-66.75,66.74c0,38.61,33.45,71.41,75.44,65.87a43,43,0,0,1,9.77-6.06C179.26,222.62,205.71,204.85,231,179.6Z" transform="translate(0 -21.98)" style="fill:#fff"/><path d="M337.45,260.1a55.39,55.39,0,1,0,55.4,55.38A55.44,55.44,0,0,0,337.45,260.1Z" transform="translate(0 -21.98)" style="fill:#fff"/><path d="M477.05,294.73a11.44,11.44,0,0,0-11.45-11.45H442.09a108.86,108.86,0,0,0-7.92-19l16.66-16.65a11.47,11.47,0,0,0,0-16.2L421.5,202.09a11.48,11.48,0,0,0-16.19,0l-16.67,16.67a107.93,107.93,0,0,0-19-7.9V187.35a11.45,11.45,0,0,0-11.45-11.45H316.72a11.45,11.45,0,0,0-11.44,11.45v23.51a108.44,108.44,0,0,0-19,7.9l-16.65-16.64a11.44,11.44,0,0,0-16.19,0L224.1,231.43a11.44,11.44,0,0,0,0,16.2l16.64,16.65a108.4,108.4,0,0,0-7.91,19H209.32a11.44,11.44,0,0,0-11.44,11.45v41.48a11.45,11.45,0,0,0,11.44,11.45h23.5a109.63,109.63,0,0,0,7.92,19l-16.66,16.65a11.47,11.47,0,0,0,0,16.19l29.33,29.33a11.47,11.47,0,0,0,16.2,0l16.64-16.64a108.26,108.26,0,0,0,19,7.91v23.52a11.45,11.45,0,0,0,11.44,11.45h41.47a11.45,11.45,0,0,0,11.45-11.45V420.11a107.84,107.84,0,0,0,19-7.91l16.67,16.65a11.46,11.46,0,0,0,16.19,0l29.32-29.32a11.46,11.46,0,0,0,0-16.19l-16.66-16.66a107.84,107.84,0,0,0,7.91-19H465.6a11.47,11.47,0,0,0,11.46-11.45Zm-139.6,92a71.29,71.29,0,1,1,71.3-71.29A71.37,71.37,0,0,1,337.45,386.77Z" transform="translate(0 -21.98)" style="fill:#fff"/></svg>