<?xml version="1.0" encoding="iso-8859-1"?>
<!-- Generator: Adobe Illustrator 19.0.0, SVG Export Plug-In . SVG Version: 6.00 Build 0)  -->
<svg version="1.1" id="Capa_1" xmlns="http://www.w3.org/2000/svg" xmlns:xlink="http://www.w3.org/1999/xlink" x="0px" y="0px"
	 viewBox="0 0 463 463" style="enable-background:new 0 0 463 463;" xml:space="preserve">
<g>
	<path d="M63.5,216h-8c-4.143,0-7.5,3.358-7.5,7.5s3.357,7.5,7.5,7.5h8c4.143,0,7.5-3.358,7.5-7.5S67.643,216,63.5,216z"/>
	<path d="M95.5,216h-8c-4.143,0-7.5,3.358-7.5,7.5s3.357,7.5,7.5,7.5h8c4.143,0,7.5-3.358,7.5-7.5S99.643,216,95.5,216z"/>
	<path d="M127.5,216h-8c-4.143,0-7.5,3.358-7.5,7.5s3.357,7.5,7.5,7.5h8c4.143,0,7.5-3.358,7.5-7.5S131.643,216,127.5,216z"/>
	<path d="M439.5,47c12.958,0,23.5-10.542,23.5-23.5S452.458,0,439.5,0h-32c-0.06,0-0.119,0.007-0.179,0.009
		c-0.162,0.004-0.324,0.01-0.487,0.024c-0.093,0.008-0.185,0.022-0.277,0.034c-0.148,0.019-0.296,0.038-0.444,0.066
		c-0.11,0.021-0.218,0.048-0.327,0.074c-0.127,0.03-0.255,0.059-0.382,0.096c-0.129,0.038-0.255,0.083-0.381,0.127
		c-0.086,0.03-0.172,0.053-0.257,0.086L137.137,105.295c-5.33,1.895-9.809,5.78-12.444,11.05L90.865,184H23.5
		c-4.143,0-7.5,3.358-7.5,7.5V248H7.5c-4.143,0-7.5,3.358-7.5,7.5v32c0,4.142,3.357,7.5,7.5,7.5H56v17H39.5
		C26.542,312,16,322.542,16,335.5V448H7.5c-4.143,0-7.5,3.358-7.5,7.5s3.357,7.5,7.5,7.5h48c4.143,0,7.5-3.358,7.5-7.5V359h97v96.5
		c0,4.142,3.357,7.5,7.5,7.5h48c4.143,0,7.5-3.358,7.5-7.5s-3.357-7.5-7.5-7.5H207V335.5c0-12.958-10.542-23.5-23.5-23.5H167v-17
		h48.5c4.143,0,7.5-3.358,7.5-7.5v-32c0-4.142-3.357-7.5-7.5-7.5h-24.229l51.584-25.792c0.721-0.36,1.379-0.834,1.949-1.405
		L408,57.606v155.263l-30.356,37.946c-1.063,1.33-1.644,2.982-1.644,4.685v64c0,4.142,3.357,7.5,7.5,7.5h64
		c4.143,0,7.5-3.358,7.5-7.5v-64c0-1.703-0.58-3.355-1.644-4.685L423,212.869V47H439.5z M167,191.5v-65.167
		c0-5.538-2.031-10.608-5.381-14.515l215.212-84.257L167,237.393V191.5z M138.108,123.054c1.25-2.5,3.764-4.054,6.559-4.054
		c4.043,0,7.333,3.29,7.333,7.333V184h-44.365L138.108,123.054z M31,199h121v49H31V199z M71,295h17v17H71V295z M120,295v17h-17v-17
		H120z M48,448H31v-89h17V448z M175,448v-89h17v89H175z M192,335.5v8.5H31v-8.5c0-4.687,3.813-8.5,8.5-8.5h144
		C188.187,327,192,330.813,192,335.5z M152,312h-17v-17h17V312z M208,280H15v-17h193V280z M235.058,209.336l-37.574,18.787
		L410.606,15H439.5c4.687,0,8.5,3.813,8.5,8.5s-3.813,8.5-8.5,8.5h-24c-1.989,0-3.896,0.79-5.304,2.197L235.058,209.336z
		 M415.5,227.506L431.895,248h-32.791L415.5,227.506z M391,312v-49h49v49H391z"/>
</g>
<g>
</g>
<g>
</g>
<g>
</g>
<g>
</g>
<g>
</g>
<g>
</g>
<g>
</g>
<g>
</g>
<g>
</g>
<g>
</g>
<g>
</g>
<g>
</g>
<g>
</g>
<g>
</g>
<g>
</g>
</svg>
