<svg xmlns="http://www.w3.org/2000/svg" viewBox="0 0 476.24 414.48"><title>judge</title><path d="M69.68,384.44,186,268.12a40.64,40.64,0,0,0,9.93-41l36-36A158.39,158.39,0,0,0,264.83,212a17,17,0,0,1,4-6.67l60.31-60.31a16.37,16.37,0,0,1,6.7-3.94c-7.38-15.86-18.69-32.17-33.55-47-15.15-15.15-31.81-26.65-48-34a16.88,16.88,0,0,1-3.85,6.31l-60.31,60.31a17.13,17.13,0,0,1-6.26,3.95,158.74,158.74,0,0,0,21.33,33.82l-36,36a40.65,40.65,0,0,0-40.95,9.93L12,326.71a40.82,40.82,0,0,0,57.73,57.73Z" transform="translate(0 -30.88)" style="fill:#fff"/><path d="M274.59,211.13a9.19,9.19,0,0,0-2.28,4.12c-1.49,5.41.91,12.9,6.58,18.56,4.44,4.43,10.13,7.08,15.23,7.08a10.41,10.41,0,0,0,7.46-2.77l18.64-18.65,23-23,18.65-18.64c2.29-2.29,3.21-5.78,2.59-9.84a23.52,23.52,0,0,0-6.9-12.84c-4.43-4.43-10.12-7.08-15.22-7.08a13,13,0,0,0-3.37.46,9,9,0,0,0-4.09,2.32Z" transform="translate(0 -30.88)" style="fill:#fff"/><path d="M177,123.73a12.4,12.4,0,0,0,3.82-.6,9.08,9.08,0,0,0,3.64-2.18l60.31-60.31A9.24,9.24,0,0,0,246.83,57c1.77-5.44-.59-13.19-6.42-19-4.44-4.43-10.13-7.08-15.23-7.08a10.38,10.38,0,0,0-7.45,2.77L197.18,54.2,178,73.41,157.41,94c-5,5-3,15.37,4.31,22.69C166.16,121.08,171.85,123.73,177,123.73Z" transform="translate(0 -30.88)" style="fill:#fff"/><path d="M300.44,387.31c9.89-1,20.5-1.25,31.58-1.25,4.72,0,9.56,0,14.48.07,10.21.08,21,.08,31.22,0,4.92,0,9.76-.07,14.48-.07,11.08,0,21.69.28,31.58,1.25V363.72H300.44Z" transform="translate(0 -30.88)" style="fill:#fff"/><path d="M392.2,394.19q-7.05,0-14.42.07c-10.26.08-21.08.08-31.33,0-4.91,0-9.73-.07-14.42-.07-11.51,0-22.06.23-31.58,1.13-31.42,3-51.13,13.57-52.47,50H476.24c-1.34-36.47-21.05-47.06-52.47-50C414.25,394.42,403.69,394.19,392.2,394.19Z" transform="translate(0 -30.88)" style="fill:#fff"/></svg>