<svg xmlns="http://www.w3.org/2000/svg" viewBox="0 0 26.46 25.97"><title>metiz-v2</title><path d="M14.36,13.14a.54.54,0,0,1-.21-.05.51.51,0,0,1-.29-.45v-5L10.57,3.79a.49.49,0,0,1-.08-.53A.51.51,0,0,1,11,3H15.7a.5.5,0,0,1,.5.5V5.14h.44V3.47a.5.5,0,0,1,.5-.5h4.53a.49.49,0,0,1,.45.29.51.51,0,0,1-.07.53l-3.19,3.8V9.82a.5.5,0,0,1-.24.43L16.23,11.7,14.69,13A.52.52,0,0,1,14.36,13.14ZM12,4l2.71,3.2a.47.47,0,0,1,.12.32v4.07l.79-.67,2.21-1.35V7.41A.47.47,0,0,1,18,7.09L20.59,4H17.64V5.64a.5.5,0,0,1-.5.5H15.7a.5.5,0,0,1-.5-.5V4Z" transform="translate(-2.77 -2.97)" style="fill:#fff"/><path d="M16.31,28.94a.51.51,0,0,1-.36-.15l-1.89-1.93a.52.52,0,0,1-.14-.35V23.05a.49.49,0,0,1,.24-.42l3.94-2.42a.49.49,0,0,1,.51,0,.5.5,0,0,1,.25.44v5.63a.53.53,0,0,1-.13.34l-2.06,2.17A.48.48,0,0,1,16.31,28.94ZM14.92,26.3l1.38,1.42,1.56-1.65V21.52l-2.94,1.81Z" transform="translate(-2.77 -2.97)" style="fill:#fff"/><path d="M14.42,16.92a.5.5,0,0,1-.24-.06.51.51,0,0,1-.26-.44V14.61a.5.5,0,0,1,.23-.42l3.94-2.5a.52.52,0,0,1,.51,0,.5.5,0,0,1,.26.44v1.77a.49.49,0,0,1-.23.42l-3.94,2.53A.53.53,0,0,1,14.42,16.92Zm.5-2v.62l2.94-1.89V13Z" transform="translate(-2.77 -2.97)" style="fill:#fff"/><path d="M14.42,21.14a.5.5,0,0,1-.24-.06.51.51,0,0,1-.26-.44V18.83a.52.52,0,0,1,.23-.43l3.94-2.49a.49.49,0,0,1,.51,0,.48.48,0,0,1,.26.43V18.1a.48.48,0,0,1-.23.42l-3.94,2.54A.53.53,0,0,1,14.42,21.14Zm.5-2v.62l2.94-1.89v-.59Z" transform="translate(-2.77 -2.97)" style="fill:#fff"/><path d="M5.31,13.94a.45.45,0,0,1-.16,0,.39.39,0,0,1-.21-.34V10.73L2.87,8.51a.37.37,0,0,1-.07-.4.38.38,0,0,1,.35-.23h3a.37.37,0,0,1,.37.38v.88H6.7V8.26a.38.38,0,0,1,.38-.38H10a.37.37,0,0,1,.34.23.35.35,0,0,1-.07.4l-2,2.18v1.25a.4.4,0,0,1-.2.33l-1.51.83-1,.77A.35.35,0,0,1,5.31,13.94ZM4,8.63l1.58,1.7a.4.4,0,0,1,.1.26V12.8l.42-.32,1.37-.76V10.54a.38.38,0,0,1,.09-.25L9.09,8.63H7.45v.89a.38.38,0,0,1-.37.37H6.16a.38.38,0,0,1-.38-.37V8.63Z" transform="translate(-2.77 -2.97)" style="fill:#fff"/><path d="M6.55,28.81a.37.37,0,0,1-.26-.1L5.09,27.6A.42.42,0,0,1,5,27.32v-2A.4.4,0,0,1,5.16,25l2.51-1.4a.38.38,0,0,1,.37,0,.37.37,0,0,1,.19.32v3.26a.4.4,0,0,1-.12.27l-1.3,1.26A.39.39,0,0,1,6.55,28.81Zm-.83-1.65.82.76.94-.9V24.55l-1.76,1Z" transform="translate(-2.77 -2.97)" style="fill:#fff"/><path d="M5.35,16.13a.32.32,0,0,1-.19-.05A.38.38,0,0,1,5,15.76v-1a.39.39,0,0,1,.19-.33l2.5-1.44a.37.37,0,0,1,.38,0,.4.4,0,0,1,.19.33v1a.36.36,0,0,1-.19.32l-2.5,1.47A.34.34,0,0,1,5.35,16.13Zm.37-1.2v.17l1.76-1v-.17Z" transform="translate(-2.77 -2.97)" style="fill:#fff"/><path d="M5.35,18.88a.32.32,0,0,1-.19-.05A.38.38,0,0,1,5,18.51V17.46a.36.36,0,0,1,.19-.32l2.5-1.45a.37.37,0,0,1,.38,0,.4.4,0,0,1,.19.33v1a.36.36,0,0,1-.19.32l-2.5,1.47A.34.34,0,0,1,5.35,18.88Zm.37-1.2v.17l1.76-1v-.16Z" transform="translate(-2.77 -2.97)" style="fill:#fff"/><path d="M5.35,21.63a.32.32,0,0,1-.19-.05A.38.38,0,0,1,5,21.26V20.21a.36.36,0,0,1,.19-.32l2.5-1.45a.42.42,0,0,1,.38,0,.4.4,0,0,1,.19.33v1a.37.37,0,0,1-.19.33l-2.5,1.46A.34.34,0,0,1,5.35,21.63Zm.37-1.2v.18l1.76-1v-.16Z" transform="translate(-2.77 -2.97)" style="fill:#fff"/><path d="M5.35,24.39a.41.41,0,0,1-.19-.05A.4.4,0,0,1,5,24V23a.37.37,0,0,1,.19-.32l2.5-1.45a.42.42,0,0,1,.38,0,.4.4,0,0,1,.19.33v1a.37.37,0,0,1-.19.33l-2.5,1.46A.35.35,0,0,1,5.35,24.39Zm.37-1.21v.18l1.76-1v-.16Z" transform="translate(-2.77 -2.97)" style="fill:#fff"/><path d="M24.38,22.2a.35.35,0,0,1-.17,0,.37.37,0,0,1-.21-.34V19l-2-2.22a.37.37,0,0,1-.06-.4.36.36,0,0,1,.34-.22h2.91a.37.37,0,0,1,.38.37v.88h.13v-.88a.37.37,0,0,1,.38-.37h2.77a.38.38,0,0,1,.35.22.37.37,0,0,1-.07.4L27.2,18.94v1.25a.37.37,0,0,1-.19.33l-1.46.84-.94.76A.4.4,0,0,1,24.38,22.2Zm-1.26-5.31,1.54,1.7a.38.38,0,0,1,.09.25V21l.38-.3L26.45,20V18.79a.39.39,0,0,1,.1-.25L28,16.89H26.45v.88a.36.36,0,0,1-.37.37h-.89a.37.37,0,0,1-.37-.37v-.88Z" transform="translate(-2.77 -2.97)" style="fill:#fff"/><path d="M25.57,28.91a.36.36,0,0,1-.26-.11l-1.16-1.12a.39.39,0,0,1-.11-.27v-2a.37.37,0,0,1,.18-.32l2.42-1.4a.37.37,0,0,1,.56.32v3.26a.39.39,0,0,1-.11.27L25.83,28.8A.38.38,0,0,1,25.57,28.91Zm-.78-1.66.77.75.89-.88V24.66l-1.66,1Z" transform="translate(-2.77 -2.97)" style="fill:#fff"/><path d="M24.41,24.39A.38.38,0,0,1,24,24V23a.36.36,0,0,1,.18-.32l2.42-1.44a.37.37,0,0,1,.56.32v1a.37.37,0,0,1-.18.32L24.6,24.33A.33.33,0,0,1,24.41,24.39Zm.38-1.21v.17l1.66-1v-.15Z" transform="translate(-2.77 -2.97)" style="fill:#fff"/></svg>