<svg xmlns="http://www.w3.org/2000/svg" viewBox="0 0 824.41 724.77"><title>tender</title><path d="M862.12,762.34H602.28a50.15,50.15,0,0,0-50.09,50.09v9.39a50.15,50.15,0,0,0,50.09,50.09H862.12a50.15,50.15,0,0,0,50.09-50.09v-9.39A50.15,50.15,0,0,0,862.12,762.34Zm18.78,59.48a18.8,18.8,0,0,1-18.78,18.79H602.28a18.8,18.8,0,0,1-18.78-18.79v-9.39a18.8,18.8,0,0,1,18.78-18.78H862.12a18.8,18.8,0,0,1,18.78,18.78Z" transform="translate(-87.79 -147.14)" style="fill:#fff"/><path d="M555.86,689.59l6.65,6.64a50.18,50.18,0,0,0,70.83,0L789.18,540.39h0a50.15,50.15,0,0,0,0-70.84l-6.64-6.64a50.18,50.18,0,0,0-70.72-.11L488.17,239.15a50.18,50.18,0,0,0-.11-70.72l-6.64-6.64a50.15,50.15,0,0,0-70.84,0L254.74,317.63a50.14,50.14,0,0,0,0,70.83l6.64,6.65a50.2,50.2,0,0,0,70.73.1l73.28,73.28-313,313a15.64,15.64,0,0,0,0,22.14l55.08,55.08a15.66,15.66,0,0,0,22.13,0l313-313,73.16,73.15A50.15,50.15,0,0,0,555.86,689.59ZM493.67,512.5,466.13,485,354.25,373.08,466,261.29,689.68,484.94,577.89,596.72l-84.21-84.21Zm253.45-32.91a18.67,18.67,0,0,1,13.29,5.46l6.64,6.64a18.81,18.81,0,0,1,0,26.56L611.21,674.09a18.89,18.89,0,0,1-26.57,0L578,667.45a18.81,18.81,0,0,1,0-26.56l8.93-8.93a15.38,15.38,0,0,0,2.22-1.84L723.08,496.2a16.75,16.75,0,0,0,1.84-2.23l8.92-8.92A18.65,18.65,0,0,1,747.12,479.59ZM296.8,378.43A18.65,18.65,0,0,1,283.52,373l-6.64-6.64a18.81,18.81,0,0,1,0-26.56L432.72,183.92a18.81,18.81,0,0,1,26.56,0l6.64,6.65a18.86,18.86,0,0,1,0,26.56l-9.75,9.75A15,15,0,0,0,454.9,228L321,361.94a14.83,14.83,0,0,0-1.12,1.26L310.08,373A18.63,18.63,0,0,1,296.8,378.43ZM158.53,825.51l-32.95-32.94L427.52,490.63l14.87,14.87,18.08,18.07Z" transform="translate(-87.79 -147.14)" style="fill:#fff"/><path d="M527.26,340.39l-43.83-43.83A15.65,15.65,0,0,0,461.3,318.7l43.82,43.83a15.66,15.66,0,1,0,22.14-22.14Z" transform="translate(-87.79 -147.14)" style="fill:#fff"/><path d="M569.13,382.26l-14.48-14.48a15.65,15.65,0,0,0-22.13,22.14L547,404.4a15.66,15.66,0,0,0,22.14-22.14Z" transform="translate(-87.79 -147.14)" style="fill:#fff"/></svg>