<svg xmlns="http://www.w3.org/2000/svg" viewBox="0 0 535.5 545.06"><title>tools</title><path d="M540.28,516.38H511.59V487.69h28.69V459H380.58L295,384.52c.64-1.32,1.22-2.68,1.75-4.09,6.18-16.29,5.65-30.76,18.11-31.6,14.07-.95,13.4-21.43-6.78-20.84-7.5.22-16.13,3.14-25.58,17.14-3.48,5.14-6.43,12.7-11.28,18.69l-9.72-8.46a9.56,9.56,0,0,0-12.55,0l-13.46,11.71c-7.4-6.84-10.62-18.62-10.62-31.54,0-14.63,8.08-32.19,22.7-32.19a100.87,100.87,0,0,1,25,2.94V239.06H263V0H243.85V239.06h-9.57v44.29c-28.68,1.79-39,23.9-39,55.6,0,18.29,3.41,37.35,14.76,50.23L129.82,459H4.78v28.69H23.91v28.69H4.78v28.68h535.5ZM226.16,400.52a61.35,61.35,0,0,0,23.45,4.22c15.36,0,25.46-2.25,32.46-6.11L351.45,459H159Z" transform="translate(-4.78)" style="fill:#fff"/></svg>